<svg width="40" height="40" viewBox="0 0 40 40" fill="none" xmlns="http://www.w3.org/2000/svg">
<g clip-path="url(#clip0_1186_2291)">
<path d="M20 40C31.0457 40 40 31.0457 40 20C40 8.9543 31.0457 0 20 0C8.9543 0 0 8.9543 0 20C0 31.0457 8.9543 40 20 40Z" fill="#292424"/>
<path d="M19.9948 18.6667C17.0493 18.6667 14.6615 16.2788 14.6615 13.3333C14.6615 10.3878 17.0493 8 19.9948 8C22.9403 8 25.3281 10.3878 25.3281 13.3333C25.3281 16.2788 22.9403 18.6667 19.9948 18.6667Z" fill="#292424" stroke="white" stroke-width="1.5"/>
<path d="M10.6641 26.5782C10.6641 25.431 11.3852 24.4077 12.4655 24.0219C17.3361 22.2824 22.6587 22.2824 27.5293 24.0219C28.6096 24.4077 29.3307 25.431 29.3307 26.5782V29.0259C29.3307 30.243 28.2528 31.1779 27.0479 31.0058L23.8158 30.5441C21.283 30.1823 18.7117 30.1823 16.179 30.5441L12.9469 31.0058C11.742 31.1779 10.6641 30.243 10.6641 29.0259V26.5782Z" fill="#292424" stroke="white" stroke-width="1.5"/>
</g>
<defs>
<clipPath id="clip0_1186_2291">
<rect width="40" height="40" fill="white"/>
</clipPath>
</defs>
</svg>
