<svg width="669" height="147" viewBox="0 0 669 147" fill="none" xmlns="http://www.w3.org/2000/svg">
<path d="M12 24.8C18.4 24.8 23.6 19.6 23.6 13.2C23.6 6.79999 18.4 1.4 12 1.4C5.4 1.4 0.200001 6.79999 0.200001 13.2C0.200001 19.6 5.4 24.8 12 24.8ZM3.2 143H20.6V43H3.2V143ZM101.545 59.8V43H74.9453V15L57.5453 20.2V43H37.7453V59.8H57.5453V114C57.5453 139 71.5453 147 101.545 143V127.4C83.7453 128.2 74.9453 129.2 74.9453 114V59.8H101.545ZM132.263 70C132.263 61 141.063 56.6 150.063 56.6C158.863 56.6 167.663 60.4 171.463 69.4L186.063 61.2C179.663 48.2 166.463 40.4 150.063 40.4C129.863 40.4 114.663 52.6 114.663 70.2C114.663 106.4 170.663 94.2 170.663 115.6C170.663 125.4 161.463 129.2 150.863 129.2C138.463 129.2 129.263 123.2 126.063 113.6L111.063 122.2C116.863 136 130.863 145.6 150.863 145.6C172.263 145.6 188.263 134.2 188.263 115.6C188.263 78.8 132.263 91.4 132.263 70ZM255.864 145.6C284.464 145.6 304.264 130 304.264 105.4C304.264 78.4 281.264 71.2 256.864 63.2C237.264 57 227.464 52.2 227.464 39.2C227.464 26.4 237.864 18.4 252.864 18.4C269.864 18.4 279.664 28 284.664 40L300.264 31C292.464 13.4 275.864 0.399988 252.864 0.399988C229.464 0.399988 208.864 14.8 208.864 40C208.864 66 230.464 73 252.864 80.2C273.464 86.6 285.864 91.4 285.864 105.8C285.864 118.4 276.064 127.4 256.264 127.4C235.864 127.4 223.864 117.4 218.864 102L202.864 111.2C210.264 132.2 229.264 145.6 255.864 145.6ZM375.959 59.8V43H349.359V15L331.959 20.2V43H312.159V59.8H331.959V114C331.959 139 345.959 147 375.959 143V127.4C358.159 128.2 349.359 129.2 349.359 114V59.8H375.959ZM438.481 145.6C467.681 145.6 491.281 122.6 491.281 93C491.281 63.4 467.681 40.4 438.481 40.4C409.281 40.4 385.881 63.4 385.881 93C385.881 122.6 409.281 145.6 438.481 145.6ZM438.481 128.6C418.681 128.6 403.281 113.2 403.281 93C403.281 72.8 418.681 57.4 438.481 57.4C458.481 57.4 473.881 72.8 473.881 93C473.881 113.2 458.481 128.6 438.481 128.6ZM529.194 59.8V43H511.794V143H529.194V90C529.194 66.4 545.394 58.8 560.394 59.4V41.2C547.794 41.2 535.594 45.8 529.194 59.8ZM584.15 101H667.95C668.35 98.4 668.55 95.8 668.55 93.2C668.55 65.2 648.95 40.4 618.75 40.4C587.55 40.4 566.35 63.4 566.35 93C566.35 123 587.75 145.6 619.95 145.6C639.95 145.6 655.15 136.6 663.95 123L649.15 114.6C644.15 122.8 634.15 129.2 620.35 129.2C601.75 129.2 587.55 119 584.15 101ZM618.75 56.8C633.75 56.8 647.95 66 650.95 85.8H584.15C586.95 68.4 599.95 56.8 618.75 56.8Z" fill="black"/>
</svg>
